HIERARCHY
ROOT Hips
{
	OFFSET 49.633900 -0.382569 94.308197
	CHANNELS 6 Xposition Yposition Zposition Xrotation Yrotation Zrotation
	JOINT spine
	{
		OFFSET 0.000000 -0.448574 7.800591
		CHANNELS 3 Xrotation Yrotation Zrotation
		JOINT spine1
		{
			OFFSET 0.000000 -0.000002 10.136398
			CHANNELS 3 Xrotation Yrotation Zrotation
			JOINT spine2
			{
				OFFSET 0.000000 -0.000002 9.712509
				CHANNELS 3 Xrotation Yrotation Zrotation
				JOINT Neck
				{
					OFFSET 0.000000 -1.188874 24.936104
					CHANNELS 3 Xrotation Yrotation Zrotation
					JOINT Head
					{
						OFFSET 0.000000 -0.000001 7.533844
						CHANNELS 3 Xrotation Yrotation Zrotation
						End Site
						{
							OFFSET 0.000000 6.014017 18.236099
						}
					}
				}
				JOINT RightShoulder
				{
					OFFSET -4.089649 0.569455 10.488808
					CHANNELS 3 Xrotation Yrotation Zrotation
					JOINT RightArm
					{
						OFFSET 0.000000 -0.000002 13.757004
						CHANNELS 3 Xrotation Yrotation Zrotation
						JOINT RightArmRoll
						{
							OFFSET 0.000000 -0.000001 6.944778
							CHANNELS 3 Xrotation Yrotation Zrotation
							JOINT RightForeArm
							{
								OFFSET 0.000000 -0.000003 20.227692
								CHANNELS 3 Xrotation Yrotation Zrotation
								JOINT RightForeArmRoll
								{
									OFFSET 0.000000 -0.000001 7.793121
									CHANNELS 3 Xrotation Yrotation Zrotation
									JOINT RightHand
									{
										OFFSET 0.000000 -0.000003 15.639099
										CHANNELS 3 Xrotation Yrotation Zrotation
										End Site
										{
											OFFSET 0.000000 0.000000 0.100006
										}
									}
								}
							}
						}
					}
				}
				JOINT LeftShoulder
				{
					OFFSET 4.089649 0.569455 10.488808
					CHANNELS 3 Xrotation Yrotation Zrotation
					JOINT LeftArm
					{
						OFFSET 0.000000 -0.000002 13.757004
						CHANNELS 3 Xrotation Yrotation Zrotation
						JOINT LeftArmRoll
						{
							OFFSET 0.000000 -0.000001 6.944778
							CHANNELS 3 Xrotation Yrotation Zrotation
							JOINT LeftForeArm
							{
								OFFSET 0.000000 -0.000003 20.227692
								CHANNELS 3 Xrotation Yrotation Zrotation
								JOINT LeftForeArmRoll
								{
									OFFSET 0.000000 -0.000001 7.793121
									CHANNELS 3 Xrotation Yrotation Zrotation
									JOINT LeftHand
									{
										OFFSET 0.000000 -0.000003 15.639099
										CHANNELS 3 Xrotation Yrotation Zrotation
										End Site
										{
											OFFSET 0.000000 0.000000 0.100006
										}
									}
								}
							}
						}
					}
				}
			}
		}
	}
	JOINT RightUpLeg
	{
		OFFSET -6.914158 1.063580 -1.267883
		CHANNELS 3 Xrotation Yrotation Zrotation
		JOINT RightUpLegRoll
		{
			OFFSET 0.000000 -0.000003 18.337799
			CHANNELS 3 Xrotation Yrotation Zrotation
			JOINT RightLeg
			{
				OFFSET 0.000000 0.000004 -22.708496
				CHANNELS 3 Xrotation Yrotation Zrotation
				JOINT RightLegRoll
				{
					OFFSET 0.000000 -0.000004 22.782799
					CHANNELS 3 Xrotation Yrotation Zrotation
					JOINT RightFoot
					{
						OFFSET 0.000000 -0.000003 18.962898
						CHANNELS 3 Xrotation Yrotation Zrotation
						JOINT RightToeBase
						{
							OFFSET 0.000000 -0.000003 15.852005
							CHANNELS 3 Xrotation Yrotation Zrotation
							End Site
							{
								OFFSET 0.006718 0.884892 7.677002
							}
						}
					}
				}
			}
		}
	}
	JOINT LeftUpLeg
	{
		OFFSET 6.914158 1.063580 -1.267883
		CHANNELS 3 Xrotation Yrotation Zrotation
		JOINT LeftUpLegRoll
		{
			OFFSET 0.000000 -0.000003 18.337898
			CHANNELS 3 Xrotation Yrotation Zrotation
			JOINT LeftLeg
			{
				OFFSET 0.000000 -0.000004 22.708397
				CHANNELS 3 Xrotation Yrotation Zrotation
				JOINT LeftLegRoll
				{
					OFFSET 0.000000 -0.000004 22.993408
					CHANNELS 3 Xrotation Yrotation Zrotation
					JOINT LeftFoot
					{
						OFFSET 0.000000 -0.000003 18.752197
						CHANNELS 3 Xrotation Yrotation Zrotation
						JOINT LeftToeBase
						{
							OFFSET 0.000000 -0.000003 15.852005
							CHANNELS 3 Xrotation Yrotation Zrotation
							End Site
							{
								OFFSET -0.030113 0.884892 7.677017
							}
						}
					}
				}
			}
		}
	}
}
MOTION
Frames: 8
Frame Time: 0.041667
52.030895 -8.441684 94.143204 -5.213454 2.071373 1.008441 -0.629376 -0.167795 0.429242 2.745334 -0.323204 0.847636 4.390336 -0.312947 0.851394 19.726058 -0.131256 -2.201476 -14.990112 -1.326043 -2.218440 -40.847888 -83.912364 -44.970874 75.666898 -75.705660 70.075917 0.000002 0.000022 -0.000002 32.440947 -17.393265 4.979182 0.000008 0.000003 -3.000002 -5.000152 -7.998973 0.000150 0.006076 62.710398 0.483742 -14.519995 107.498285 14.613084 0.000000 -0.000006 -0.000000 31.649095 10.920637 -1.088273 -0.000009 -0.000011 2.999981 -5.000277 7.998743 -0.000166 -0.761667 176.199346 -2.602919 -179.999991 0.000005 -1.193994 169.397202 -2.056312 -0.595838 0.000003 -0.000002 0.320493 71.894168 7.647828 -0.175296 25.459180 -7.350785 0.008238 -0.533522 179.226022 6.422737 0.000010 -0.000004 -1.413160 -14.608248 4.101986 0.804761 -0.000004 0.000003 -0.385340 74.214575 -7.766372 0.879114 25.466852 7.344079 -0.001281 
52.025196 -8.445803 94.137497 -5.212693 2.073855 1.001035 -0.628223 -0.167828 0.429242 2.747644 -0.324959 0.847467 4.392657 -0.314705 0.851241 19.708844 -0.106636 -2.201400 -14.979938 -1.362700 -2.218964 -40.921712 -83.923142 -45.045675 75.529721 -75.742727 70.033905 0.000002 0.000022 -0.000002 32.414930 -17.369728 4.960282 0.000010 0.000002 -3.000002 -5.000155 -7.998975 0.000151 0.007801 62.694600 0.479849 -14.359522 107.524417 14.407954 0.000000 -0.000007 0.000000 31.628523 10.897703 -1.081328 -0.000006 -0.000011 2.999980 -5.000280 7.998744 -0.000167 -0.755830 176.193322 -2.609507 -179.999991 0.000005 -1.193994 169.399046 -2.049450 -0.595496 0.000003 -0.000002 0.320752 71.888909 7.646688 -0.173018 25.459178 -7.350786 0.008238 -0.527582 179.223030 6.419573 0.000010 -0.000004 -1.413160 -14.611496 4.104075 0.804696 -0.000003 0.000003 -0.385362 74.219499 -7.766376 0.880954 25.466854 7.344078 -0.001281 
52.026897 -8.469221 94.137695 -5.212143 2.076307 0.993314 -0.627076 -0.167855 0.429242 2.749945 -0.326771 0.847264 4.394958 -0.316521 0.851051 19.692427 -0.080242 -2.201271 -14.970089 -1.401388 -2.219463 -40.995806 -83.933900 -45.120701 75.394688 -75.779289 69.994816 0.000001 0.000022 -0.000002 32.388060 -17.346071 4.941182 0.000012 0.000003 -3.000000 -5.000153 -7.998974 0.000150 0.010095 62.679109 0.475347 -14.200995 107.550802 14.203056 0.000000 -0.000006 0.000000 31.605065 10.874407 -1.074141 -0.000008 -0.000011 2.999981 -5.000279 7.998743 -0.000167 -0.749969 176.187311 -2.616057 -179.999991 0.000005 -1.193994 169.400685 -2.042572 -0.596144 0.000003 -0.000002 0.321043 71.883875 7.645567 -0.170852 25.459180 -7.350786 0.008238 -0.521372 179.221022 6.416449 0.000010 -0.000004 -1.413160 -14.614846 4.106162 0.804598 -0.000005 0.000003 -0.385396 74.224526 -7.766367 0.882902 25.466849 7.344078 -0.001281 
52.029396 -8.474732 94.139000 -5.211719 2.078748 0.985375 -0.625938 -0.167878 0.429242 2.752225 -0.328625 0.847036 4.397239 -0.318377 0.850837 19.676617 -0.052600 -2.201090 -14.960457 -1.441497 -2.219945 -41.069637 -83.944575 -45.195495 75.260946 -75.815482 69.957591 0.000002 0.000022 -0.000002 32.360651 -17.322326 4.921970 0.000011 0.000003 -3.000001 -5.000153 -7.998973 0.000150 0.012789 62.664001 0.470417 -14.044003 107.577378 13.998497 0.000000 -0.000006 0.000000 31.579629 10.850798 -1.066802 -0.000005 -0.000011 2.999980 -5.000282 7.998743 -0.000167 -0.744088 176.181328 -2.622580 -179.999991 0.000005 -1.195005 169.401928 -2.035705 -0.595811 0.000002 -0.000003 0.321357 71.878964 7.644500 -0.168986 25.459180 -7.350786 0.008238 -0.514968 179.218030 6.413349 0.000010 -0.000004 -1.413160 -14.618189 4.108248 0.804473 -0.000004 0.000003 -0.385437 74.229751 -7.766294 0.884975 25.466852 7.344078 -0.001281 
52.035389 -8.488961 94.137604 -5.211396 2.081169 0.977305 -0.624804 -0.167896 0.429242 2.754496 -0.330501 0.846794 4.399509 -0.320257 0.850610 19.661111 -0.024236 -2.200881 -14.950926 -1.482442 -2.220408 -41.144209 -83.955312 -45.271013 75.128331 -75.851416 69.921787 0.000002 0.000023 -0.000002 32.332712 -17.298480 4.902590 0.000010 0.000003 -3.000000 -5.000155 -7.998972 0.000149 0.015711 62.649002 0.465241 -13.888042 107.604132 13.794301 0.000000 -0.000007 0.000000 31.552954 10.827063 -1.059369 -0.000007 -0.000011 2.999980 -5.000279 7.998744 -0.000166 -0.738198 176.175331 -2.629086 -179.999991 0.000005 -1.195005 169.403171 -2.029805 -0.595673 0.000003 -0.000002 0.321685 71.874060 7.643429 -0.167022 25.459183 -7.350787 0.008238 -0.508452 179.216036 6.410247 0.000010 -0.000004 -1.413160 -14.621642 4.110332 0.804339 -0.000003 0.000002 -0.385483 74.234990 -7.766249 0.887143 25.466856 7.344079 -0.001281 
52.029694 -8.495854 94.133995 -5.211087 2.083580 0.969202 -0.623675 -0.167915 0.429242 2.756767 -0.332384 0.846548 4.401780 -0.322143 0.850378 19.645607 0.004325 -2.200653 -14.941408 -1.523601 -2.220853 -41.218450 -83.965968 -45.346200 74.995839 -75.887322 69.886202 0.000001 0.000022 -0.000002 32.304766 -17.274537 4.883201 0.000010 0.000002 -3.000002 -5.000152 -7.998973 0.000151 0.018694 62.633996 0.460000 -13.733464 107.630046 13.591352 0.000000 -0.000006 -0.000000 31.526073 10.803244 -1.051946 -0.000006 -0.000011 2.999980 -5.000285 7.998744 -0.000167 -0.732308 176.169307 -2.635592 -179.999991 0.000005 -1.195005 169.404333 -2.022938 -0.596342 0.000003 -0.000002 0.322016 71.869279 7.642381 -0.165263 25.459180 -7.350786 0.008238 -0.501913 179.214041 6.407165 0.000011 -0.000004 -1.413160 -14.624989 4.112419 0.804194 -0.000004 0.000003 -0.385531 74.240222 -7.766204 0.889211 25.466852 7.344078 -0.001281 
52.028996 -8.502783 94.132698 -5.210730 2.086001 0.961156 -0.622542 -0.167936 0.429242 2.759038 -0.334256 0.846308 4.404052 -0.324020 0.850153 19.630010 0.032556 -2.200422 -14.931900 -1.564387 -2.221285 -41.293647 -83.976691 -45.422332 74.862384 -75.923338 69.849490 0.000002 0.000024 -0.000002 32.277077 -17.250705 4.863966 0.000007 0.000003 -3.000001 -5.000153 -7.998974 0.000150 0.021569 62.618990 0.454877 -13.578296 107.657039 13.388140 0.000000 -0.000007 0.000001 31.499729 10.779526 -1.044609 -0.000006 -0.000011 2.999981 -5.000285 7.998744 -0.000167 -0.726421 176.163297 -2.642100 -179.999991 0.000005 -1.195004 169.405576 -2.016071 -0.596010 0.000003 -0.000002 0.322341 71.864375 7.641314 -0.163298 25.459182 -7.350786 0.008238 -0.495423 179.211023 6.404072 0.000010 -0.000004 -1.413160 -14.628438 4.114503 0.804065 -0.000004 0.000002 -0.385576 74.245365 -7.766201 0.891367 25.466854 7.344079 -0.001281 
52.032391 -8.514194 94.133804 -5.210290 2.088443 0.953263 -0.621401 -0.167958 0.429242 2.761318 -0.336101 0.846086 4.406332 -0.325867 0.849945 19.614020 0.059931 -2.200187 -14.922288 -1.604193 -2.221717 -41.368492 -83.987319 -45.498130 74.727822 -75.959668 69.811309 0.000002 0.000022 -0.000001 32.249725 -17.226886 4.844820 0.000008 0.000002 -3.000001 -5.000153 -7.998975 0.000150 0.024165 62.603690 0.450052 -13.422847 107.684107 13.185518 0.000000 -0.000007 0.000000 31.474755 10.755984 -1.037402 -0.000008 -0.000011 2.999980 -5.000284 7.998745 -0.000166 -0.720544 176.158297 -2.648650 -179.999991 0.000005 -1.195005 169.406914 -2.009191 -0.595672 0.000003 -0.000002 0.322650 71.859457 7.640208 -0.161238 25.459182 -7.350785 0.008238 -0.489058 179.209028 6.400962 0.000010 -0.000004 -1.413160 -14.631783 4.116590 0.803947 -0.000004 0.000002 -0.385616 74.250502 -7.766166 0.893428 25.466852 7.344079 -0.001281 
